<?xml version="1.0" standalone="no"?><!DOCTYPE svg PUBLIC "-//W3C//DTD SVG 1.1//EN" "http://www.w3.org/Graphics/SVG/1.1/DTD/svg11.dtd"><svg t="1665547717848" class="icon" viewBox="0 0 1024 1024" version="1.1" xmlns="http://www.w3.org/2000/svg" p-id="2748" xmlns:xlink="http://www.w3.org/1999/xlink" width="200" height="200"><path d="M455.11304 108.682847c-48.405695 0-87.786305 39.38061-87.786306 87.786306 0 48.402802 39.38061 87.783412 87.786306 87.783412 48.402802 0 87.783412-39.38061 87.783412-87.783412 0-48.408588-39.38061-87.786305-87.783412-87.786306z m0 128.535142c-22.470147 0-40.754621-18.281582-40.754622-40.751729s18.281582-40.754621 40.754622-40.754622c22.470147 0 40.751729 18.281582 40.751728 40.754622s-18.278689 40.751729-40.751728 40.751729z" p-id="2749"></path><path d="M974.824859 160.542373v460.209898c-23.141243-32.689898-51.876881-62.602847-82.637379-89.322305C813.663458 463.180655 720.271186 416.912633 619.028249 396.979345V290.711864h76.033446C769.805017 290.711864 830.19209 232.095096 830.19209 157.351774V134.508475h-32.698576C818.100791 111.367232 830.19209 79.07652 830.19209 45.212203V21.694915H0v23.517288c0 36.331751 4.824949 69.036113 16.091842 102.909108 16.421605 49.458621 43.222056 94.225356 78.304181 129.304587 62.608633 62.611525 144.274079 97.175864 229.948745 97.175865H396.293785v460.643796c-60.745763 11.272678-109.920904 66.826124-109.920904 133.455548V1002.305085h153.77356c63.317333 0 115.24339-52.030192 115.24339-115.978125v-72.079186c20.248588 23.447864 45.32791 44.96922 70.615502 64.503322-1.660384 1.48104-3.121175 2.97365-4.677423 4.529898C595.794441 908.817356 581.423729 942.736633 581.423729 978.787797v23.517288h442.576271v-841.762712h-49.175141z m-355.79661-92.564972h161.381243c-10.323887 37.60452-44.677062 66.531073-85.344904 66.531074H619.028249v-66.531074z m0 112.813559h161.381243c-10.323887 37.60452-44.677062 63.638418-85.344904 63.638419H619.028249v-63.638419z m-571.938712-112.813559h47.882124c-6.288633 20.248588-21.211842 36.273898-40.607096 44.159277-3.664994-14.541379-6.083254-29.696-7.275028-44.159277z m277.255231 260.338983c-73.111864 0-142.963706-30.046011-196.688994-83.774192-24.133424-24.130531-43.939435-54.318282-58.116339-87.175955C107.797695 142.911638 136.310599 108.474576 143.799684 67.977401H572.745763v260.338983h-248.400995z m238.583322 423.316972c-1.457898-1.810802-2.88687-3.62739-4.318734-5.449763-2.881085-3.667887-5.281989-7.457266-8.628791-11.40574L509.107345 685.863051v200.463909c0 38.663232-30.945627 69.695638-68.960904 69.695639h-105.220339c6.378305-43.389831 42.519141-75.20904 86.010214-75.20904H445.468927v-506.214689h127.276836v42.067887c0 7.850667 4.133605 21.680452 22.079638 23.702418l0.049175 0.04339c98.520949 16.548881 190.689627 60.291616 266.890848 126.51896 32.284927 28.047186 61.107345 59.935819 86.175096 95.093153a187.733333 187.733333 0 0 0-26.916158-17.202622c-26.919051-14.10748-57.341107-21.564746-87.936724-21.564745-104.569492 0-189.654056 85.058531-189.654056 189.610666a184.77704 184.77704 0 0 0 1.171525 20.861831 547.429243 547.429243 0 0 1-81.677017-82.096452z m69.099752 204.389243c4.003435-14.463277 11.521446-28.168678 22.464361-39.108701 4.017898-4.017898 8.374237-7.781243 13.262825-11.003661 8.408949 14.937672 18.865898 29.076972 31.197288 41.414147a394.086689 394.086689 0 0 0 9.048226 8.701108h-75.9727z m342.797017 0h-141.789288c-38.145446 0-73.953627-15.17487-100.820611-42.044746a142.723616 142.723616 0 0 1-41.437288-91.532294c-0.211164-3.112497-0.318192-6.363842-0.318192-9.485017 0-78.61948 63.973966-142.625266 142.613695-142.625265 23.022644 0 45.871729 5.574147 66.100068 16.175729 32.490305 16.997243 57.20226 46.574644 68.746847 81.185265 4.943548 14.79304 6.910554 29.982373 6.910554 45.171706V956.022599z" p-id="2750"></path></svg>